<?xml version="1.0" standalone="no"?>
<!DOCTYPE svg PUBLIC "-//W3C//DTD SVG 20010904//EN"
 "http://www.w3.org/TR/2001/REC-SVG-20010904/DTD/svg10.dtd">
<svg version="1.0" xmlns="http://www.w3.org/2000/svg"
 width="256.000000pt" height="256.000000pt" viewBox="0 0 256.000000 256.000000"
 preserveAspectRatio="xMidYMid meet">

<g transform="translate(0.000000,256.000000) scale(0.100000,-0.100000)"
fill="currentColor" stroke="none">
<path d="M1083 2237 c-149 -149 -163 -166 -163 -198 0 -46 34 -79 79 -79 28 0
47 13 117 82 l84 82 0 -278 0 -277 25 -24 c15 -16 36 -25 55 -25 19 0 40 9 55
25 l25 24 0 277 0 278 84 -82 c72 -71 88 -82 118 -82 45 0 78 34 78 80 0 31
-16 51 -163 197 -147 147 -166 163 -197 163 -31 0 -50 -16 -197 -163z"/>
<path d="M323 1477 c-147 -147 -163 -166 -163 -197 0 -31 16 -50 163 -197 149
-149 166 -163 198 -163 46 0 79 34 79 79 0 28 -13 47 -82 117 l-82 84 278 0
277 0 24 25 c33 32 33 78 0 110 l-24 25 -277 0 -278 0 82 84 c71 72 82 88 82
118 0 45 -34 78 -80 78 -31 0 -51 -16 -197 -163z"/>
<path d="M1982 1617 c-14 -14 -22 -36 -22 -56 0 -28 13 -47 82 -117 l82 -84
-278 0 -277 0 -24 -25 c-33 -32 -33 -78 0 -110 l24 -25 277 0 278 0 -82 -84
c-71 -72 -82 -88 -82 -118 0 -45 34 -78 80 -78 31 0 51 16 197 163 147 147
163 166 163 197 0 31 -16 50 -163 197 -149 149 -166 163 -198 163 -24 0 -42
-7 -57 -23z"/>
<path d="M1225 1015 l-25 -24 0 -277 0 -278 -84 82 c-72 71 -88 82 -118 82
-45 0 -78 -34 -78 -80 0 -31 16 -51 163 -197 147 -147 166 -163 197 -163 31 0
50 16 197 163 149 149 163 166 163 198 0 46 -34 79 -79 79 -28 0 -47 -13 -117
-82 l-84 -82 0 278 0 277 -25 24 c-15 16 -36 25 -55 25 -19 0 -40 -9 -55 -25z"/>
</g>
</svg>
